<svg xmlns="http://www.w3.org/2000/svg" version="1.1" xmlns:xlink="http://www.w3.org/1999/xlink" xmlns:svgjs="http://svgjs.dev/svgjs" width="1000" height="1000" viewBox="0 0 1000 1000"><rect width="1000" height="1000" fill="#cf5260"></rect><g transform="matrix(0.7,0,0,0.7,149.57575757575756,282.1265587044535)"><svg viewBox="0 0 396 247" data-background-color="#cf5260" preserveAspectRatio="xMidYMid meet" height="623" width="1000" xmlns="http://www.w3.org/2000/svg" xmlns:xlink="http://www.w3.org/1999/xlink"><g id="tight-bounds" transform="matrix(1,0,0,1,0.2400000000000091,-0.09999999999999432)"><svg viewBox="0 0 395.52 247.2" height="247.2" width="395.52"><g><svg></svg></g><g><svg viewBox="0 0 395.52 247.2" height="247.2" width="395.52"><g transform="matrix(1,0,0,1,116.83078784810127,47.215199999999996)"><svg viewBox="0 0 161.85842430379745 152.7696" height="152.7696" width="161.85842430379745"><g><svg viewBox="0 0 161.85842430379745 152.7696" height="152.7696" width="161.85842430379745"><g><svg viewBox="0 0 161.85842430379745 152.7696" height="152.7696" width="161.85842430379745"><g><svg viewBox="0 0 161.85842430379745 152.7696" height="152.7696" width="161.85842430379745"><g id="textblocktransform"><svg viewBox="0 0 161.85842430379745 152.7696" height="152.7696" width="161.85842430379745" id="textblock"><g><svg viewBox="0 0 161.85842430379745 152.7696" height="152.7696" width="161.85842430379745"><g transform="matrix(1,0,0,1,0,0)"><svg width="161.85842430379745" viewBox="0.49000000953674316 -37.5 40.8599967956543 38.56999969482422" height="152.7696" data-palette-color="#f0f0f0"><path d="M1.37-2.78L1.37-2.78 2.05-5.52Q6.3-3.22 10.4-3.22L10.4-3.22Q13.33-3.22 15.41-4.42 17.48-5.62 17.48-8.3L17.48-8.3Q17.48-10.69 15.72-12.67 13.96-14.65 11.47-16.16 8.98-17.68 6.49-19.26 4-20.85 2.25-23.17 0.49-25.49 0.49-28.32L0.49-28.32Q0.49-31.79 2.98-34.64 5.47-37.5 8.98-37.5L8.98-37.5Q11.67-37.5 14.97-36.43 18.26-35.35 20.51-34.28L20.51-34.28 19.92-32.32Q14.36-34.23 10.55-34.23L10.55-34.23Q8.2-34.23 6.54-32.71 4.88-31.2 4.88-28.81L4.88-28.81Q4.88-27 5.81-25.54 6.74-24.07 8.23-23 9.72-21.92 11.55-20.9 13.38-19.87 15.19-18.7 16.99-17.53 18.48-16.16 19.97-14.79 20.9-12.72 21.83-10.64 21.83-8.06L21.83-8.06Q21.83-4.39 19.48-2.08 17.14 0.24 13.38 0.24L13.38 0.24Q10.16 0.24 6.52-0.66 2.88-1.56 1.37-2.78ZM40.77-24.22L40.77-24.22 40.52-22.12Q38.47-22.41 37.01-22.41L37.01-22.41Q33.64-22.41 31.44-20.39 29.25-18.36 28.44-15.6 27.63-12.84 27.63-9.47L27.63-9.47Q27.63-7.91 27.83-6.69 28.02-5.47 28.54-4.3 29.05-3.13 30.15-2.47 31.25-1.81 32.86-1.81L32.86-1.81Q35.01-1.81 38.33-2.64L38.33-2.64Q39.35-3.03 39.94-3.03L39.94-3.03Q41.11-3.03 41.35-0.29L41.35-0.29Q37.06 1.07 33.4 1.07L33.4 1.07Q28.07 1.07 26.19-1.54 24.31-4.15 24.31-10.01L24.31-10.01Q24.31-13.43 24.78-15.99 25.24-18.55 26.41-20.78 27.59-23 29.81-24.17 32.03-25.34 35.25-25.34L35.25-25.34Q38.86-25.34 40.77-24.22Z" opacity="1" transform="matrix(1,0,0,1,0,0)" fill="#f0f0f0" class="wordmark-text-0" data-fill-palette-color="primary" id="text-0"></path></svg></g></svg></g></svg></g></svg></g></svg></g></svg></g></svg></g><g><path d="M204.529 0c30.402 0 58.24 10.976 79.768 29.183l-11.147 0c-19.26-14.022-42.974-22.294-68.621-22.295-25.647 0-49.361 8.272-68.621 22.295l-11.147 0c21.528-18.206 49.366-29.183 79.768-29.183zM328.129 123.6c0 20.278-4.883 39.416-13.538 56.302v-17.373c4.307-12.175 6.65-25.278 6.65-38.929 0-13.65-2.343-26.754-6.65-38.929v-17.373c8.655 16.885 13.538 36.023 13.538 56.302zM204.529 247.2c-30.402 0-58.24-10.976-79.768-29.183l11.147 0c19.26 14.022 42.974 22.294 68.621 22.295 25.647 0 49.361-8.272 68.621-22.295l11.147 0c-21.528 18.206-49.366 29.183-79.768 29.183z" fill="#f0f0f0" stroke="transparent" data-fill-palette-color="tertiary"></path></g></svg></g><defs></defs></svg><rect width="395.52" height="247.2" fill="none" stroke="none" visibility="hidden"></rect></g></svg></g></svg>